<?xml version="1.0" standalone="no"?>
<!DOCTYPE svg PUBLIC "-//W3C//DTD SVG 20010904//EN"
 "http://www.w3.org/TR/2001/REC-SVG-20010904/DTD/svg10.dtd">
<svg version="1.0" xmlns="http://www.w3.org/2000/svg"
 width="280.000000pt" height="280.000000pt" viewBox="0 0 280.000000 280.000000"
 preserveAspectRatio="xMidYMid meet">
<metadata>
Created by potrace 1.11, written by Peter Selinger 2001-2013
</metadata>
<g transform="translate(0.000000,280.000000) scale(0.100000,-0.100000)"
fill="#000000" stroke="none">
<path d="M2037 2578 c-34 -12 -30 -37 13 -83 45 -48 88 -123 111 -193 42 -127
6 -297 -121 -560 -143 -298 -269 -471 -568 -783 -151 -159 -199 -203 -206
-192 -27 47 95 259 339 588 25 33 75 107 112 165 67 102 68 106 68 171 0 59
-4 72 -31 111 -59 82 -226 210 -253 194 -4 -3 -11 -32 -14 -64 -18 -171 -189
-490 -390 -727 -46 -55 -164 -181 -261 -280 l-177 -180 4 52 c3 40 15 72 51
134 39 66 278 423 431 641 64 91 39 211 -66 315 -66 66 -164 120 -184 103 -8
-7 -15 -22 -15 -34 0 -66 -117 -352 -259 -633 -186 -369 -231 -532 -174 -639
29 -54 75 -92 121 -99 20 -3 45 -10 54 -16 46 -25 62 -13 242 173 96 100 178
180 180 177 3 -3 1 -21 -4 -40 -19 -66 -12 -142 18 -200 23 -44 38 -59 82 -81
30 -16 75 -31 100 -34 l45 -5 410 418 c414 422 501 519 602 672 111 167 193
377 193 490 -1 177 -130 388 -266 435 -53 18 -144 20 -187 4z m358 -213 c33
-68 55 -158 55 -226 0 -63 -35 -189 -52 -189 -6 0 -8 11 -4 28 39 165 29 266
-39 399 -23 45 -40 85 -36 88 9 9 48 -42 76 -100z m-59 -227 c29 -56 13 -148
-37 -219 -29 -41 -32 -32 -10 27 39 103 35 181 -12 249 l-20 30 32 -30 c18
-16 39 -42 47 -57z m-1226 -361 c11 -18 20 -50 20 -72 0 -41 -29 -117 -49
-129 -15 -10 -14 3 4 54 30 84 18 129 -49 192 l-31 29 43 -21 c23 -11 52 -35
62 -53z m1076 -79 c-55 -115 -123 -217 -256 -384 -56 -71 -114 -145 -129 -163
-15 -19 -30 -31 -33 -25 -4 5 66 106 155 224 94 124 191 267 232 339 38 68 71
119 73 113 2 -6 -17 -53 -42 -104z m-551 -77 c-30 -85 -114 -252 -149 -296
-52 -65 -29 4 67 205 71 149 103 207 105 191 2 -13 -8 -58 -23 -100z m-738
-74 c-84 -167 -272 -526 -281 -535 -3 -3 -9 -2 -13 2 -4 4 10 41 31 84 70 143
329 613 334 607 3 -3 -29 -74 -71 -158z m659 115 c-23 -64 -314 -624 -336
-646 -5 -5 -13 -6 -17 -3 -10 11 347 687 362 687 2 0 -2 -17 -9 -38z m140
-570 c-85 -100 -179 -192 -215 -211 -38 -21 -22 1 83 115 86 92 187 184 203
184 2 0 -30 -40 -71 -88z m-936 73 c0 -2 -13 -25 -29 -50 -56 -88 -109 -257
-112 -357 -1 -32 -1 -32 -15 12 -19 59 -11 118 30 211 36 84 101 189 116 189
5 0 10 -2 10 -5z m598 -2 c-2 -5 -27 -55 -56 -113 -50 -101 -80 -203 -83 -280
-1 -32 -2 -33 -9 -10 -21 65 -4 164 45 261 28 56 89 149 98 149 5 0 7 -3 5 -7z
m-767 -525 c38 -33 41 -38 22 -38 -13 0 -40 17 -63 40 -36 36 -40 45 -39 88
l1 47 17 -49 c12 -34 31 -62 62 -88z"/>
</g>
</svg>
